<svg width="12" height="10" viewBox="0 0 12 10" fill="none" xmlns="http://www.w3.org/2000/svg">
<path d="M11.25 4.28622H2.355L5.0775 1.17222C5.2048 1.02636 5.26605 0.838321 5.24777 0.649462C5.22948 0.460603 5.13316 0.286396 4.98 0.165165C4.82684 0.0439344 4.62938 -0.0143903 4.43106 0.00302223C4.23274 0.0204348 4.0498 0.112158 3.9225 0.258014L0.1725 4.54334C0.147271 4.57743 0.124709 4.61324 0.105 4.65048C0.105 4.68619 0.105 4.70762 0.0525001 4.74333C0.0185052 4.82522 0.000705841 4.91239 0 5.00045C0.000705841 5.0885 0.0185052 5.17567 0.0525001 5.25757C0.0525001 5.29328 0.0524999 5.3147 0.105 5.35041C0.124709 5.38765 0.147271 5.42346 0.1725 5.45755L3.9225 9.74288C3.99302 9.8235 4.08132 9.88834 4.18113 9.93278C4.28095 9.97722 4.38982 10.0002 4.5 10C4.67524 10.0003 4.84507 9.9422 4.98 9.83573C5.05594 9.77577 5.11872 9.70213 5.16473 9.61903C5.21075 9.53594 5.2391 9.44501 5.24815 9.35147C5.25721 9.25792 5.2468 9.16359 5.21751 9.07388C5.18823 8.98417 5.14065 8.90085 5.0775 8.82868L2.355 5.71467H11.25C11.4489 5.71467 11.6397 5.63942 11.7803 5.50548C11.921 5.37153 12 5.18987 12 5.00045C12 4.81102 11.921 4.62936 11.7803 4.49542C11.6397 4.36147 11.4489 4.28622 11.25 4.28622Z" fill="white"/>
</svg>
