<svg width="7" height="10" viewBox="0 0 7 10" fill="none" xmlns="http://www.w3.org/2000/svg">
<path d="M0.302974 9.20886V1.69658L0.768518 9.72094M0.302974 9.20886C0.303116 9.2996 0.325175 9.38866 0.366893 9.46694C0.408612 9.54523 0.468491 9.60991 0.540402 9.65437C0.60998 9.69775 0.688543 9.72067 0.768518 9.72094M0.302974 9.20886H0.648655V9.20853C0.648655 9.20846 0.648655 9.20839 0.648655 9.20831L0.302974 9.20886ZM0.768518 9.72094L0.769681 9.37526C0.767783 9.37525 0.765851 9.37518 0.763889 9.37502C0.761927 9.37523 0.759998 9.37536 0.758106 9.37542L0.768518 9.72094ZM6.47492 9.20769V9.20886H6.8206L6.47492 9.20696C6.47492 9.2072 6.47492 9.20745 6.47492 9.20769ZM5.78904 0.849099H5.7964V0.503418L5.78316 0.848846C5.78512 0.848921 5.78708 0.849006 5.78904 0.849099ZM6.5312 0.8687C6.72291 1.09204 6.82689 1.38949 6.8206 1.69658L6.5312 0.8687ZM1.32717 0.849099H1.33453C1.33649 0.849006 1.33845 0.848921 1.34042 0.848846L1.32717 0.503418V0.849099Z" stroke="white" stroke-width="0.691363"/>
</svg>
