<svg width="9" height="9" viewBox="0 0 9 9" fill="none" xmlns="http://www.w3.org/2000/svg">
<path d="M0.146484 4.58497C0.146484 6.82895 1.96598 8.64844 4.20996 8.64844C6.45394 8.64844 8.27343 6.82894 8.27343 4.58496C8.27343 2.34099 6.45394 0.521493 4.20996 0.521493C1.96598 0.521493 0.146484 2.34099 0.146484 4.58497ZM5.75371 3.08475L5.75099 3.68338L4.67617 4.58497L5.75008 5.48564L5.75281 6.08518C5.75281 6.12509 5.72106 6.15775 5.68024 6.15775C5.66301 6.15775 5.64668 6.1514 5.63308 6.14051L4.22719 4.96047L2.82221 6.14051C2.80891 6.15147 2.79227 6.15755 2.77504 6.15775C2.73513 6.15775 2.70248 6.12509 2.70248 6.08518L2.7052 5.48564L3.78003 4.58497L2.70611 3.68429L2.70339 3.08565C2.70339 3.04574 2.73513 3.01309 2.77595 3.01309C2.79318 3.01309 2.80951 3.01944 2.82312 3.03032L4.2281 4.20855L5.63399 3.02942C5.64759 3.01853 5.66392 3.01218 5.68115 3.01218C5.72106 3.01218 5.75371 3.04484 5.75371 3.08475Z" fill="#919597"/>
</svg>
