<svg width="14" height="15" viewBox="0 0 14 15" fill="none" xmlns="http://www.w3.org/2000/svg">
<path d="M13 0.113281H1C0.734784 0.113281 0.48043 0.218638 0.292893 0.406174C0.105357 0.593711 0 0.848065 0 1.11328V13.1133C0 13.3785 0.105357 13.6329 0.292893 13.8204C0.48043 14.0079 0.734784 14.1133 1 14.1133H13C13.2652 14.1133 13.5196 14.0079 13.7071 13.8204C13.8946 13.6329 14 13.3785 14 13.1133V1.11328C14 0.848065 13.8946 0.593711 13.7071 0.406174C13.5196 0.218638 13.2652 0.113281 13 0.113281ZM8 1.61328H9V3.11328H8V1.61328ZM5 1.61328H6V3.11328H5V1.61328ZM3 12.6133H2V11.1133H3V12.6133ZM3 3.11328H2V1.61328H3V3.11328ZM6 12.6133H5V11.1133H6V12.6133ZM9 12.6133H8V11.1133H9V12.6133ZM10.58 7.53328L5.695 9.71328C5.61901 9.74547 5.53623 9.75834 5.45405 9.75076C5.37188 9.74317 5.29285 9.71537 5.22404 9.66982C5.15522 9.62427 5.09874 9.5624 5.05965 9.48972C5.02056 9.41704 5.00007 9.33581 5 9.25328V4.89828C5.00017 4.81489 5.0212 4.73286 5.06118 4.65967C5.10115 4.58647 5.1588 4.52444 5.22887 4.47922C5.29894 4.434 5.37921 4.40702 5.46237 4.40074C5.54553 4.39446 5.62894 4.40909 5.705 4.44328L10.58 6.61328C10.6702 6.6517 10.7471 6.71579 10.8012 6.79758C10.8552 6.87937 10.884 6.97524 10.884 7.07328C10.884 7.17132 10.8552 7.26719 10.8012 7.34898C10.7471 7.43077 10.6702 7.49486 10.58 7.53328ZM12 12.6133H11V11.1133H12V12.6133ZM12 3.11328H11V1.61328H12V3.11328Z" fill="white"/>
</svg>
