<svg width="24" height="21" viewBox="0 0 24 21" fill="none" xmlns="http://www.w3.org/2000/svg">
<path fill-rule="evenodd" clip-rule="evenodd" d="M11.5962 16.1476C11.5487 16.1692 11.4942 16.1692 11.4467 16.1476L0.336813 11.096C0.195662 11.0319 0.195662 10.8314 0.336813 10.7672L3.4395 9.35642L11.4467 12.9972C11.4942 13.0188 11.5487 13.0188 11.5962 12.9972L19.6034 9.35642L22.7061 10.7672C22.8472 10.8314 22.8472 11.0319 22.7061 11.096L11.5962 16.1476Z" fill="white"/>
<path fill-rule="evenodd" clip-rule="evenodd" d="M11.5962 20.3478C11.5487 20.3694 11.4942 20.3694 11.4467 20.3478L0.336813 15.2962C0.195662 15.2321 0.195662 15.0316 0.336813 14.9674L3.4395 13.5566L11.4467 17.1974C11.4942 17.219 11.5487 17.219 11.5962 17.1974L19.6034 13.5566L22.7061 14.9674C22.8472 15.0316 22.8472 15.2321 22.7061 15.2962L11.5962 20.3478Z" fill="white"/>
<path d="M11.7706 1.05804C11.628 0.993241 11.4645 0.993241 11.322 1.05804L0.361627 6.04163C0.220475 6.10581 0.220475 6.3063 0.361626 6.37048L11.4715 11.4221C11.519 11.4437 11.5735 11.4437 11.621 11.4221L22.7309 6.37048C22.8721 6.3063 22.8721 6.10581 22.7309 6.04163L11.7706 1.05804Z" fill="white"/>
</svg>
