<svg width="14" height="13" viewBox="0 0 14 13" fill="none" xmlns="http://www.w3.org/2000/svg">
<path fill-rule="evenodd" clip-rule="evenodd" d="M3.29881 1.03983C2.31604 1.23409 1.23163 2.14662 0.753636 3.18163C-0.288292 5.43814 0.88216 8.40444 2.81905 8.41567C4.13735 8.42335 5.05036 7.62513 5.20145 6.33284C5.40013 4.63283 4.02296 3.27871 2.51088 3.68732C2.0274 3.81798 1.44011 4.30368 1.25782 4.72371L1.12871 5.02096L1.12488 4.65518C1.11556 3.76668 1.7052 2.7232 2.50922 2.2054C2.99555 1.8923 3.07001 1.87467 3.91317 1.87467C4.73435 1.87467 4.84168 1.89811 5.2925 2.17576C5.59772 2.36372 5.89185 2.65576 6.07561 2.9532L6.36994 3.42955L6.40065 5.87441L6.43146 8.31937H7.11195H7.79254V5.87717C7.79254 3.46106 7.79519 3.42965 8.04105 2.9345C8.19636 2.62179 8.44164 2.32828 8.69495 2.15213C9.04187 1.91091 9.19443 1.87024 9.75356 1.87024C10.288 1.87024 10.473 1.91504 10.7705 2.11639C11.2843 2.46415 11.6974 3.15652 11.8651 3.9507C12.3393 6.19667 11.5234 7.96679 9.66458 8.72503C9.14096 8.93869 8.96034 8.951 5.53601 9.00731C1.63771 9.07141 1.50575 9.09022 0.902077 9.67054C0.0183017 10.5201 0.247977 12.0878 1.3419 12.6743L1.75877 12.8978L7.32652 12.9269L12.8943 12.9561V12.2623V11.5686L7.47368 11.5682C2.25806 11.5679 2.04113 11.5605 1.73689 11.3743C1.36977 11.1497 1.24801 10.7925 1.40715 10.407C1.63653 9.85131 1.63947 9.85082 5.68317 9.78702C9.34572 9.72932 9.42352 9.72391 10.1 9.48051C11.1915 9.08776 11.543 8.86898 12.18 8.18547C13.3852 6.89249 13.6863 5.03425 12.9923 3.17267C12.7631 2.55789 12.1623 1.82072 11.6004 1.46468C11.0462 1.11358 10.1158 0.899918 9.47218 0.97583C8.62785 1.07537 7.71395 1.66958 7.32092 2.37426C7.23704 2.5248 7.16758 2.48611 6.74865 2.05554C5.85565 1.1378 4.62967 0.776843 3.29881 1.03983ZM3.40329 4.74596C4.04582 5.31999 3.99696 6.93542 3.32363 7.37819C2.75645 7.75116 1.93027 7.45608 1.64879 6.77985C1.32307 5.99759 1.68362 4.85604 2.34743 4.56795C2.62646 4.44674 3.17116 4.53871 3.40329 4.74596Z" fill="white"/>
</svg>
