<svg width="17" height="17" viewBox="0 0 17 17" fill="none" xmlns="http://www.w3.org/2000/svg">
<g clip-path="url(#clip0_6_12856)">
<path d="M6.94116 9.12107C7.22746 9.50382 7.59273 9.82053 8.0122 10.0497C8.43166 10.2789 8.8955 10.4151 9.37226 10.4493C9.84902 10.4834 10.3276 10.4146 10.7754 10.2476C11.2232 10.0805 11.6299 9.81912 11.9678 9.48107L13.9678 7.48107C14.575 6.8524 14.911 6.01039 14.9034 5.1364C14.8958 4.26241 14.5453 3.42637 13.9272 2.80834C13.3092 2.19032 12.4732 1.83975 11.5992 1.83216C10.7252 1.82456 9.88317 2.16054 9.2545 2.76774L8.10783 3.90774" stroke="#EEF65C" stroke-width="1.33333" stroke-linecap="round" stroke-linejoin="round"/>
<path d="M9.60764 7.78791C9.32133 7.40516 8.95606 7.08846 8.5366 6.85928C8.11714 6.63011 7.6533 6.49383 7.17654 6.45969C6.69977 6.42554 6.22124 6.49433 5.77341 6.66139C5.32557 6.82845 4.91889 7.08986 4.58097 7.42791L2.58097 9.42791C1.97378 10.0566 1.63779 10.8986 1.64539 11.7726C1.65298 12.6466 2.00355 13.4826 2.62157 14.1006C3.2396 14.7187 4.07564 15.0692 4.94963 15.0768C5.82362 15.0844 6.66563 14.7484 7.2943 14.1412L8.4343 13.0012" stroke="#EEF65C" stroke-width="1.33333" stroke-linecap="round" stroke-linejoin="round"/>
</g>
<defs>
<clipPath id="clip0_6_12856">
<rect width="16" height="16" fill="white" transform="translate(0.274414 0.455078)"/>
</clipPath>
</defs>
</svg>
