
<svg width="1382px" height="1382px" viewBox="0 0 1382 1382" version="1.1" xmlns="http://www.w3.org/2000/svg" xmlns:xlink="http://www.w3.org/1999/xlink">
    <defs>
        <linearGradient x1="50%" y1="0%" x2="50%" y2="102.094523%" id="linearGradient-1">
            <stop stop-color="#FF8960" offset="0%"></stop>
            <stop stop-color="#FF62A5" offset="100%"></stop>
        </linearGradient>
        <radialGradient cx="50%" cy="0%" fx="50%" fy="0%" r="112.566121%" id="radialGradient-2">
            <stop stop-color="#000000" stop-opacity="0" offset="0%"></stop>
            <stop stop-color="#000000" stop-opacity="0.500311368" offset="100%"></stop>
        </radialGradient>
        <rect id="path-3" x="0" y="0" width="1382" height="1382" rx="691"></rect>
    </defs>
    <g id="export" stroke="none" stroke-width="1" fill="none" fill-rule="evenodd">
        <g id="1536-make-app-icon-round" transform="translate(-77.000000, -77.000000)">
            <g id="logo">
                <rect id="Rectangle" x="0" y="0" width="1536" height="1536"></rect>
                <g id="Icon" transform="translate(77.000000, 77.000000)">
                    <g id="Base">
                        <use fill="url(#linearGradient-1)" xlink:href="#path-3"></use>
                        <use fill-opacity="0.5" fill="url(#radialGradient-2)" style="mix-blend-mode: overlay;" xlink:href="#path-3"></use>
                    </g>
                    <polygon id="K" fill="#FFFFFF" points="1006.88571 322.466667 1006.88571 375.114286 1059.53333 375.114286 1059.53333 533.057143 1006.88571 533.057143 1006.88571 585.704762 954.238095 585.704762 954.238095 638.352381 901.590476 638.352381 901.590476 691 954.238095 691 954.238095 743.647619 1006.88571 743.647619 1006.88571 796.295238 1059.53333 796.295238 1059.53333 1006.88571 1006.88571 1006.88571 1006.88571 1059.53333 901.590476 1059.53333 901.590476 1006.88571 848.942857 1006.88571 848.942857 954.238095 796.295238 954.238095 796.295238 901.590476 743.647619 901.590476 743.647619 848.942857 691 848.942857 691 1006.88571 638.352381 1006.88571 638.352381 1059.53333 375.114286 1059.53333 375.114286 1006.88571 322.466667 1006.88571 322.466667 375.114286 375.114286 375.114286 375.114286 480.409524 427.761905 480.409524 427.761905 427.761905 480.409524 427.761905 480.409524 375.114286 375.114286 375.114286 375.114286 322.466667 638.352381 322.466667 638.352381 375.114286 691 375.114286 691 533.057143 743.647619 533.057143 743.647619 480.409524 796.295238 480.409524 796.295238 427.761905 848.942857 427.761905 848.942857 375.114286 901.590476 375.114286 901.590476 322.466667"></polygon>
                </g>
            </g>
        </g>
    </g>
</svg>