<svg width="91" height="18" viewBox="0 0 91 18" fill="none" xmlns="http://www.w3.org/2000/svg">
<path d="M15.9374 0.94873H13.5924V2.12124H12.4199V3.29375H11.2474V4.46626H10.0749V5.63877H8.90239V2.12124H7.72988V0.94873H1.86733V2.12124H4.21235V3.29375H3.03984V4.46626H1.86733V2.12124H0.694824V16.1914H1.86733V17.3639H7.72988V16.1914H8.90239V12.6738H10.0749V13.8463H11.2474V15.0188H12.4199V16.1914H13.5924V17.3639H15.9374V16.1914H17.11V11.5013H15.9374V10.3288H14.7649V9.1563H13.5924V7.98379H14.7649V6.81128H15.9374V5.63877H17.11V2.12124H15.9374V0.94873Z" fill="#D1F691"/>
<path d="M34.7022 0.94873H31.1846V2.12124H30.0121V12.6738H27.6671V2.12124H26.4946V0.94873H20.6321V2.12124H22.9771V3.29375H21.8046V4.46626H20.6321V2.12124H19.4596V15.0188H20.6321V16.1914H21.8046V17.3639H33.5297V16.1914H34.7022V15.0188H35.8747V2.12124H34.7022V0.94873Z" fill="#D1F691"/>
<path d="M52.2944 12.6738H46.4318V2.12124H45.2593V0.94873H39.3968V2.12124H41.7418V3.29375H40.5693V4.46626H39.3968V2.12124H38.2243V16.1914H39.3968V17.3639H52.2944V16.1914H53.4669V13.8463H52.2944V12.6738Z" fill="#D1F691"/>
<path d="M71.0637 0.94873H56.9936V2.12124H59.3386V3.29375H58.1661V4.46626H56.9936V2.12124H55.8211V16.1914H56.9936V17.3639H62.8561V16.1914H64.0287V10.3288H71.0637V9.1563H72.2362V7.98379H71.0637V6.81128H64.0287V4.46626H71.0637V3.29375H72.2362V2.12124H71.0637V0.94873Z" fill="#D1F691"/>
<path d="M88.6559 6.81128V7.98379H87.4834V9.1563H86.3109V16.1914H85.1384V17.3639H80.4484V16.1914H79.2759V9.1563H78.1033V7.98379H76.9308V6.81128H75.7583V5.63877H74.5858V2.12124H75.7583V4.46626H76.9308V3.29375H78.1033V2.12124H75.7583V0.94873H80.4484V2.12124H81.6209V3.29375H83.9659V2.12124H85.1384V0.94873H89.8284V2.12124H91.0009V5.63877H89.8284V6.81128H88.6559Z" fill="#D1F691"/>
</svg>
