<svg width="11" height="11" viewBox="0 0 11 11" fill="none" xmlns="http://www.w3.org/2000/svg">
<path d="M8.5 3.5C9.32843 3.5 10 2.82843 10 2C10 1.17157 9.32843 0.5 8.5 0.5C7.67157 0.5 7 1.17157 7 2C7 2.82843 7.67157 3.5 8.5 3.5Z" stroke="white" stroke-linecap="round" stroke-linejoin="round"/>
<path d="M2.5 7C3.32843 7 4 6.32843 4 5.5C4 4.67157 3.32843 4 2.5 4C1.67157 4 1 4.67157 1 5.5C1 6.32843 1.67157 7 2.5 7Z" stroke="white" stroke-linecap="round" stroke-linejoin="round"/>
<path d="M8.5 10.5C9.32843 10.5 10 9.82843 10 9C10 8.17157 9.32843 7.5 8.5 7.5C7.67157 7.5 7 8.17157 7 9C7 9.82843 7.67157 10.5 8.5 10.5Z" stroke="white" stroke-linecap="round" stroke-linejoin="round"/>
<path d="M3.79492 6.25391L7.20992 8.24391" stroke="white" stroke-linecap="round" stroke-linejoin="round"/>
<path d="M7.20492 2.75391L3.79492 4.74391" stroke="white" stroke-linecap="round" stroke-linejoin="round"/>
</svg>
