<svg width="6" height="5" viewBox="0 0 6 5" fill="none" xmlns="http://www.w3.org/2000/svg">
<path fill-rule="evenodd" clip-rule="evenodd" d="M3.33936 3.29785C3.27555 3.32975 3.20044 3.32975 3.13663 3.29785L1.3768 2.41793C1.20974 2.3344 1.20974 2.09599 1.3768 2.01246L1.65133 1.8752L3.13663 2.61785C3.20044 2.64975 3.27555 2.64975 3.33936 2.61785L4.82466 1.8752L5.09919 2.01246C5.26625 2.09599 5.26625 2.3344 5.09919 2.41794L3.33936 3.29785Z" fill="white"/>
<path fill-rule="evenodd" clip-rule="evenodd" d="M3.33936 4.20459C3.27555 4.23649 3.20044 4.23649 3.13663 4.20459L1.3768 3.32467C1.20974 3.24114 1.20974 3.00273 1.3768 2.9192L1.65133 2.78194L3.13663 3.52459C3.20044 3.55649 3.27555 3.55649 3.33936 3.52459L4.82466 2.78194L5.09919 2.9192C5.26625 3.00273 5.26625 3.24114 5.09919 3.32467L3.33936 4.20459Z" fill="white"/>
<path d="M3.54392 0.214064C3.35248 0.118345 3.12714 0.118345 2.93571 0.214064L1.37862 0.992608C1.21155 1.07614 1.21155 1.31455 1.37862 1.39808L3.13844 2.27799C3.20226 2.3099 3.27737 2.3099 3.34118 2.27799L5.101 1.39808C5.26807 1.31455 5.26807 1.07614 5.101 0.992608L3.54392 0.214064Z" fill="white"/>
</svg>
