<svg width="25" height="24" viewBox="0 0 25 24" fill="none" xmlns="http://www.w3.org/2000/svg">
<circle cx="12.4658" cy="11.9658" r="11.5099" stroke="white" stroke-width="0.911765"/>
<path d="M18.5 21V19.6667C18.5 18.9594 18.1839 18.2811 17.6213 17.781C17.0587 17.281 16.2956 17 15.5 17H9.5C8.70435 17 7.94129 17.281 7.37868 17.781C6.81607 18.2811 6.5 18.9594 6.5 19.6667V21" stroke="white" stroke-linecap="round" stroke-linejoin="round"/>
<path d="M12 13C13.3807 13 14.5 11.8807 14.5 10.5C14.5 9.11929 13.3807 8 12 8C10.6193 8 9.5 9.11929 9.5 10.5C9.5 11.8807 10.6193 13 12 13Z" stroke="white" stroke-linecap="round" stroke-linejoin="round"/>
</svg>
