<svg width="11" height="10" viewBox="0 0 11 10" fill="none" xmlns="http://www.w3.org/2000/svg">
<path d="M1.05556 10H9.94444C10.25 10 10.5 9.75 10.5 9.44444V0.555556C10.5 0.25 10.25 0 9.94444 0H1.05556C0.75 0 0.5 0.25 0.5 0.555556V9.44444C0.5 9.75 0.75 10 1.05556 10ZM2.16667 1.11111C2.47222 1.11111 2.72222 1.36111 2.72222 1.66667C2.72222 1.97222 2.47222 2.22222 2.16667 2.22222C1.86111 2.22222 1.61111 1.97222 1.61111 1.66667C1.61111 1.36111 1.86111 1.11111 2.16667 1.11111ZM9.38889 1.11111V2.22222H3.27778V1.11111H9.38889ZM2.16667 3.33333C2.47222 3.33333 2.72222 3.58333 2.72222 3.88889C2.72222 4.19444 2.47222 4.44444 2.16667 4.44444C1.86111 4.44444 1.61111 4.19444 1.61111 3.88889C1.61111 3.58333 1.86111 3.33333 2.16667 3.33333ZM9.38889 3.33333V4.44444H3.27778V3.33333H9.38889ZM2.16667 5.55556C2.47222 5.55556 2.72222 5.80556 2.72222 6.11111C2.72222 6.41667 2.47222 6.66667 2.16667 6.66667C1.86111 6.66667 1.61111 6.41667 1.61111 6.11111C1.61111 5.80556 1.86111 5.55556 2.16667 5.55556ZM9.38889 5.55556V6.66667H3.27778V5.55556H9.38889ZM2.16667 7.77778C2.47222 7.77778 2.72222 8.02778 2.72222 8.33333C2.72222 8.63889 2.47222 8.88889 2.16667 8.88889C1.86111 8.88889 1.61111 8.63889 1.61111 8.33333C1.61111 8.02778 1.86111 7.77778 2.16667 7.77778ZM9.38889 7.77778V8.88889H3.27778V7.77778H9.38889Z" fill="#4C4D52"/>
</svg>
