<svg width="17" height="17" viewBox="0 0 17 17" fill="none" xmlns="http://www.w3.org/2000/svg">
<path d="M14.594 6.24353H8.23717C7.45699 6.24353 6.82453 6.87599 6.82453 7.65617V14.013C6.82453 14.7932 7.45699 15.4257 8.23717 15.4257H14.594C15.3742 15.4257 16.0067 14.7932 16.0067 14.013V7.65617C16.0067 6.87599 15.3742 6.24353 14.594 6.24353Z" stroke="black" stroke-width="1.7658" stroke-linecap="round" stroke-linejoin="round"/>
<path d="M3.99786 10.4815H3.29154C2.91689 10.4815 2.55758 10.3326 2.29266 10.0677C2.02774 9.80278 1.87891 9.44347 1.87891 9.06882V2.71195C1.87891 2.3373 2.02774 1.97799 2.29266 1.71307C2.55758 1.44815 2.91689 1.29932 3.29154 1.29932H9.64841C10.0231 1.29932 10.3824 1.44815 10.6473 1.71307C10.9122 1.97799 11.061 2.3373 11.061 2.71195V3.41827" stroke="black" stroke-width="1.7658" stroke-linecap="round" stroke-linejoin="round"/>
</svg>
