<svg width="13" height="11" viewBox="0 0 13 11" fill="none" xmlns="http://www.w3.org/2000/svg">
<path d="M1.30805 6.81656C1.40788 6.81656 1.50363 6.85622 1.57422 6.92681C1.64481 6.9974 1.68447 7.09314 1.68447 7.19297V9.07505C1.68447 9.27472 1.76378 9.4662 1.90497 9.60739C2.04615 9.74857 2.23764 9.82788 2.4373 9.82788H11.4713C11.6709 9.82788 11.8624 9.74857 12.0036 9.60739C12.1448 9.4662 12.2241 9.27472 12.2241 9.07505V7.19297C12.2241 7.09314 12.2638 6.9974 12.3344 6.92681C12.4049 6.85622 12.5007 6.81656 12.6005 6.81656C12.7004 6.81656 12.7961 6.85622 12.8667 6.92681C12.9373 6.9974 12.9769 7.09314 12.9769 7.19297V9.07505C12.9769 9.47438 12.8183 9.85735 12.5359 10.1397C12.2536 10.4221 11.8706 10.5807 11.4713 10.5807H2.4373C2.03797 10.5807 1.655 10.4221 1.37264 10.1397C1.09027 9.85735 0.931637 9.47438 0.931637 9.07505V7.19297C0.931637 7.09314 0.971295 6.9974 1.04189 6.92681C1.11248 6.85622 1.20822 6.81656 1.30805 6.81656Z" fill="#F2F2F2"/>
<path d="M6.6877 8.28741C6.72267 8.32247 6.7642 8.35028 6.80993 8.36925C6.85566 8.38823 6.90469 8.398 6.9542 8.398C7.00371 8.398 7.05274 8.38823 7.09847 8.36925C7.1442 8.35028 7.18574 8.32247 7.2207 8.28741L9.4792 6.02892C9.54988 5.95824 9.58959 5.86237 9.58959 5.76241C9.58959 5.66246 9.54988 5.56659 9.4792 5.49591C9.40852 5.42523 9.31265 5.38552 9.2127 5.38552C9.11274 5.38552 9.01687 5.42523 8.94619 5.49591L7.33062 7.11224V0.492596C7.33062 0.392764 7.29096 0.297022 7.22037 0.22643C7.14978 0.155838 7.05403 0.11618 6.9542 0.11618C6.85437 0.11618 6.75863 0.155838 6.68804 0.22643C6.61744 0.297022 6.57779 0.392764 6.57779 0.492596V7.11224L4.96221 5.49591C4.89153 5.42523 4.79567 5.38552 4.69571 5.38552C4.59575 5.38552 4.49989 5.42523 4.42921 5.49591C4.35853 5.56659 4.31882 5.66246 4.31882 5.76241C4.31882 5.86237 4.35853 5.95824 4.42921 6.02892L6.6877 8.28741Z" fill="#F2F2F2"/>
</svg>
