<svg width="19" height="13" viewBox="0 0 19 13" fill="none" xmlns="http://www.w3.org/2000/svg">
<path d="M1.88636 12.1133L3.05682 8.81783H7.76136L8.93182 12.1133H10.4091L6.13636 0.476917H4.68182L0.409091 12.1133H1.88636ZM3.5 7.56783L5.36364 2.31783H5.45455L7.31818 7.56783H3.5ZM14.608 12.3178C16.1307 12.3178 16.9261 11.4996 17.1989 10.9315H17.267V12.1133H18.608V6.36328C18.608 3.59055 16.4943 3.27237 15.3807 3.27237C14.0625 3.27237 12.5625 3.72692 11.8807 5.31783L13.1534 5.77237C13.4489 5.13601 14.1477 4.45419 15.4261 4.45419C16.6591 4.45419 17.267 5.1076 17.267 6.22692V6.27237C17.267 6.9201 16.608 6.86328 15.017 7.06783C13.3977 7.27805 11.6307 7.63601 11.6307 9.63601C11.6307 11.3406 12.9489 12.3178 14.608 12.3178ZM14.8125 11.1133C13.7443 11.1133 12.9716 10.636 12.9716 9.70419C12.9716 8.68146 13.9034 8.36328 14.9489 8.22692C15.517 8.15874 17.0398 7.99964 17.267 7.72692V8.95419C17.267 10.0451 16.4034 11.1133 14.8125 11.1133Z" fill="white"/>
</svg>
