<svg width="15" height="16" viewBox="0 0 15 16" fill="none" xmlns="http://www.w3.org/2000/svg">
<path d="M5 0.613281H1.66667C1.22464 0.613281 0.800716 0.788876 0.488155 1.10144C0.175595 1.414 0 1.83792 0 2.27995V5.61328C0 6.05531 0.175595 6.47923 0.488155 6.79179C0.800716 7.10435 1.22464 7.27995 1.66667 7.27995H5C5.44203 7.27995 5.86595 7.10435 6.17851 6.79179C6.49107 6.47923 6.66667 6.05531 6.66667 5.61328V2.27995C6.66667 1.83792 6.49107 1.414 6.17851 1.10144C5.86595 0.788876 5.44203 0.613281 5 0.613281ZM13.3333 0.613281H10C9.55797 0.613281 9.13405 0.788876 8.82149 1.10144C8.50893 1.414 8.33333 1.83792 8.33333 2.27995V5.61328C8.33333 6.05531 8.50893 6.47923 8.82149 6.79179C9.13405 7.10435 9.55797 7.27995 10 7.27995H13.3333C13.7754 7.27995 14.1993 7.10435 14.5118 6.79179C14.8244 6.47923 15 6.05531 15 5.61328V2.27995C15 1.83792 14.8244 1.414 14.5118 1.10144C14.1993 0.788876 13.7754 0.613281 13.3333 0.613281ZM5 8.94661H1.66667C1.22464 8.94661 0.800716 9.12221 0.488155 9.43477C0.175595 9.74733 0 10.1713 0 10.6133V13.9466C0 14.3886 0.175595 14.8126 0.488155 15.1251C0.800716 15.4377 1.22464 15.6133 1.66667 15.6133H5C5.44203 15.6133 5.86595 15.4377 6.17851 15.1251C6.49107 14.8126 6.66667 14.3886 6.66667 13.9466V10.6133C6.66667 10.1713 6.49107 9.74733 6.17851 9.43477C5.86595 9.12221 5.44203 8.94661 5 8.94661ZM13.3333 8.94661H10C9.55797 8.94661 9.13405 9.12221 8.82149 9.43477C8.50893 9.74733 8.33333 10.1713 8.33333 10.6133V13.9466C8.33333 14.3886 8.50893 14.8126 8.82149 15.1251C9.13405 15.4377 9.55797 15.6133 10 15.6133H13.3333C13.7754 15.6133 14.1993 15.4377 14.5118 15.1251C14.8244 14.8126 15 14.3886 15 13.9466V10.6133C15 10.1713 14.8244 9.74733 14.5118 9.43477C14.1993 9.12221 13.7754 8.94661 13.3333 8.94661Z" fill="white" fill-opacity="0.25"/>
</svg>
