<svg width="12" height="11" viewBox="0 0 12 11" fill="none" xmlns="http://www.w3.org/2000/svg">
<path fill-rule="evenodd" clip-rule="evenodd" d="M5.81425 8.00839C5.77585 8.02585 5.73176 8.02585 5.69336 8.00839L0.274233 5.54435C0.160112 5.49246 0.160112 5.33036 0.274233 5.27847L1.71132 4.62504L5.68911 6.43371C5.72752 6.45117 5.7716 6.45117 5.81001 6.43371L9.79205 4.62311L11.2334 5.27847C11.3475 5.33036 11.3475 5.49246 11.2334 5.54435L5.81425 8.00839Z" fill="white"/>
<path fill-rule="evenodd" clip-rule="evenodd" d="M5.81425 10.1109C5.77585 10.1284 5.73176 10.1284 5.69336 10.1109L0.274233 7.64689C0.160112 7.595 0.160112 7.4329 0.274233 7.38101L1.71015 6.72811L5.68911 8.53731C5.72752 8.55477 5.7716 8.55477 5.81001 8.53731L9.79321 6.72618L11.2334 7.38101C11.3475 7.4329 11.3475 7.595 11.2334 7.64689L5.81425 10.1109Z" fill="white"/>
<path d="M5.95329 0.509701C5.83807 0.457312 5.70583 0.457312 5.59061 0.509701L0.292375 2.91877C0.178254 2.97066 0.178254 3.13276 0.292375 3.18465L5.7115 5.64869C5.74991 5.66615 5.79399 5.66615 5.8324 5.64869L11.2515 3.18465C11.3656 3.13276 11.3656 2.97066 11.2515 2.91877L5.95329 0.509701Z" fill="white"/>
</svg>
