<svg width="72" height="16" viewBox="0 0 72 16" fill="none" xmlns="http://www.w3.org/2000/svg">
<path fill-rule="evenodd" clip-rule="evenodd" d="M59.5026 2.00644V2.53828H58.9708C58.6771 2.53828 58.439 2.77639 58.439 3.07011V3.60194V4.13377C58.439 4.4275 58.6771 4.66561 58.9708 4.66561C59.2645 4.66561 59.5026 4.4275 59.5026 4.13378V3.60194V2.53828H60.6328H61.2311C61.5248 2.53828 61.7629 2.77638 61.7629 3.07011C61.7629 3.56737 61.7381 3.60194 61.3803 3.60194C60.9241 3.60194 60.7385 3.79513 60.6777 4.33321C60.6404 4.66521 60.5659 4.73967 60.2339 4.77703C59.7002 4.83726 59.5276 5.00226 59.6004 5.38278C59.6481 5.63235 59.7707 5.71691 60.18 5.78232C60.6397 5.85585 60.6993 5.90797 60.6993 6.23611C60.6993 6.70705 60.9186 6.9259 61.3906 6.9259C61.7097 6.9259 61.7629 6.97908 61.7629 7.29818C61.7629 7.77058 61.9819 7.98956 62.4543 7.98956C62.6599 7.98956 62.8266 8.15624 62.8266 8.36185V10.7817V12.9755C62.8266 13.3059 63.0945 13.5738 63.4249 13.5738H63.4914C63.7851 13.5738 64.0232 13.8119 64.0232 14.1056C64.0232 14.3994 64.2613 14.6375 64.555 14.6375H65.6187H66.6824C66.9761 14.6375 67.2142 14.3994 67.2142 14.1056C67.2142 13.8119 67.4523 13.5738 67.746 13.5738C68.0398 13.5738 68.2779 13.3357 68.2779 13.042V10.2499V7.52421C68.2779 7.19377 68.5457 6.9259 68.8762 6.9259H68.9427C69.2364 6.9259 69.4745 6.68779 69.4745 6.39407C69.4745 6.10035 69.7126 5.86223 70.0063 5.86223C70.3 5.86223 70.5382 5.62412 70.5382 5.3304V5.26392V5.19744C70.5382 4.90372 70.7763 4.66561 71.07 4.66561C71.3637 4.66561 71.6018 4.4275 71.6018 4.13377V3.60194V3.07011C71.6018 2.77639 71.3637 2.53828 71.07 2.53828C70.7763 2.53828 70.5382 2.30017 70.5382 2.00644C70.5382 1.71272 70.3001 1.47461 70.0063 1.47461H68.8762H67.746C67.4523 1.47461 67.2142 1.71272 67.2142 2.00644C67.2142 2.50025 67.1876 2.53828 66.8419 2.53828C66.3695 2.53828 66.1505 2.75726 66.1505 3.22966C66.1505 3.43526 65.9839 3.60194 65.7783 3.60194H65.0204H64.2625C64.0569 3.60194 63.8902 3.43526 63.8902 3.22966C63.8902 2.75726 63.6713 2.53828 63.1989 2.53828C62.8532 2.53828 62.8266 2.50025 62.8266 2.00644C62.8266 1.71272 62.5885 1.47461 62.2948 1.47461H61.1646H60.0345C59.7407 1.47461 59.5026 1.71272 59.5026 2.00644Z" fill="#EEF65C"/>
<path d="M44.1511 8.05604V3.07011C44.1511 2.77639 44.3892 2.53828 44.683 2.53828C44.9767 2.53828 45.2148 2.30016 45.2148 2.00644C45.2148 1.71272 45.4529 1.47461 45.7466 1.47461H49.7121H54.7064C54.9955 1.47461 55.2299 1.70897 55.2299 1.99807C55.2299 2.48762 55.2569 2.52418 55.6486 2.56314C56.1582 2.6138 56.4252 2.96374 56.213 3.30279C56.1328 3.43082 55.8789 3.55421 55.6486 3.57708C55.2569 3.61604 55.2299 3.6526 55.2299 4.14215C55.2299 4.43125 54.9955 4.66561 54.7064 4.66561H52.4378H50.244C49.9135 4.66561 49.6457 4.93348 49.6457 5.26392C49.6457 5.59436 49.9135 5.86223 50.244 5.86223H52.4378H54.7064C54.9955 5.86223 55.2299 6.09659 55.2299 6.38569C55.2299 6.87524 55.2569 6.9118 55.6486 6.95076C56.1582 7.00142 56.4252 7.35136 56.213 7.69041C56.1328 7.81845 55.8789 7.94183 55.6486 7.9647C55.2569 8.00366 55.2299 8.04022 55.2299 8.52977C55.2299 8.81887 54.9955 9.05323 54.7064 9.05323H52.4378H51.906C50.6576 9.05323 49.6457 10.0652 49.6457 11.3135V13.042C49.6457 13.3357 49.4076 13.5738 49.1138 13.5738C48.8201 13.5738 48.582 13.8119 48.582 14.1056C48.582 14.3994 48.3439 14.6375 48.0502 14.6375H47.4086H45.7466C45.4529 14.6375 45.2148 14.3994 45.2148 14.1056C45.2148 13.8119 44.9767 13.5738 44.683 13.5738C44.3892 13.5738 44.1511 13.3357 44.1511 13.042V8.05604Z" fill="#EEF65C"/>
<path d="M30.8875 8.05604V3.07011C30.8875 2.77638 31.1256 2.53828 31.4193 2.53828C31.713 2.53828 31.9511 2.30017 31.9511 2.00644C31.9511 1.71272 32.1892 1.47461 32.4829 1.47461H33.1245H34.7865C35.0802 1.47461 35.3183 1.71272 35.3183 2.00644C35.3183 2.30017 35.5564 2.53828 35.8502 2.53828C36.1439 2.53828 36.382 2.77638 36.382 3.07011V6.39407V7.98956C36.382 9.23789 37.394 10.2499 38.6423 10.2499H40.3707C40.6645 10.2499 40.9026 10.488 40.9026 10.7817C40.9026 11.0754 41.1407 11.3135 41.4344 11.3135C41.7281 11.3135 41.9662 11.5516 41.9662 11.8454V12.4437V13.042C41.9662 13.3357 41.7281 13.5738 41.4344 13.5738C41.1407 13.5738 40.9026 13.8119 40.9026 14.1056C40.9026 14.3994 40.6645 14.6375 40.3707 14.6375H35.9166H32.4829C32.1892 14.6375 31.9511 14.3994 31.9511 14.1056C31.9511 13.8119 31.713 13.5738 31.4193 13.5738C31.1256 13.5738 30.8875 13.3357 30.8875 13.042V8.05604Z" fill="#EEF65C"/>
<path d="M16.5996 7.45773V3.07011C16.5996 2.77639 16.8377 2.53828 17.1314 2.53828C17.4252 2.53828 17.6633 2.30016 17.6633 2.00644C17.6633 1.71272 17.9014 1.47461 18.1951 1.47461H19.8571H20.4987C20.7924 1.47461 21.0305 1.71272 21.0305 2.00644C21.0305 2.30016 21.2686 2.53828 21.5623 2.53828C21.856 2.53828 22.0941 2.77639 22.0941 3.07011V6.39407V9.11971C22.0941 9.74387 22.6001 10.2499 23.2243 10.2499C23.8485 10.2499 24.3544 9.74387 24.3544 9.11971V6.39407V3.13659C24.3544 2.80615 24.6223 2.53828 24.9527 2.53828H25.0192C25.313 2.53828 25.5511 2.30017 25.5511 2.00644C25.5511 1.71272 25.7892 1.47461 26.0829 1.47461H26.6147H27.1466C27.4403 1.47461 27.6784 1.71272 27.6784 2.00644C27.6784 2.30017 27.9165 2.53828 28.2102 2.53828C28.504 2.53828 28.7421 2.77638 28.7421 3.07011V7.45773V11.8454C28.7421 12.1391 28.504 12.3772 28.2102 12.3772C27.9165 12.3772 27.6784 12.6153 27.6784 12.909V12.9755V13.042C27.6784 13.3357 27.4403 13.5738 27.1466 13.5738C26.8528 13.5738 26.6147 13.8119 26.6147 14.1056C26.6147 14.3994 26.3766 14.6375 26.0829 14.6375H22.2271H19.3901C19.0973 14.6375 18.8599 14.4001 18.8599 14.1072C18.8599 13.5939 18.8434 13.5743 18.3427 13.4943C17.8642 13.4177 17.8194 13.3729 17.7428 12.8944C17.6627 12.3937 17.6432 12.3772 17.1298 12.3772C16.837 12.3772 16.5996 12.1398 16.5996 11.8469V7.45773Z" fill="#EEF65C"/>
<path d="M2.4187 1.48434H1.90407C1.61985 1.48434 1.38944 1.25393 1.38944 0.969707C1.38944 0.685485 1.61985 0.455078 1.90407 0.455078H4.00547H5.08646C5.37068 0.455078 5.60109 0.685485 5.60109 0.969707C5.60109 1.25393 5.83149 1.48434 6.11572 1.48434H6.1586C6.46651 1.48434 6.71612 1.73394 6.71612 2.04185V3.07111V4.14325C6.71612 4.42747 6.94652 4.65788 7.23074 4.65788C7.51497 4.65788 7.74537 4.42747 7.74537 4.14325C7.74537 3.85903 7.97578 3.62862 8.26 3.62862H8.30289C8.61079 3.62862 8.8604 3.37901 8.8604 3.07111V3.02822C8.8604 2.744 9.09081 2.51359 9.37503 2.51359C9.65925 2.51359 9.88966 2.28319 9.88966 1.99896C9.88966 1.71474 10.1201 1.48434 10.4043 1.48434H10.4472H10.4901C10.7743 1.48434 11.0047 1.25393 11.0047 0.969707C11.0047 0.685485 11.2351 0.455078 11.5193 0.455078H12.0339H12.5486C12.8328 0.455078 13.0632 0.685485 13.0632 0.969707C13.0632 1.25393 13.2936 1.48434 13.5778 1.48434C13.8621 1.48434 14.0925 1.71474 14.0925 1.99896V3.07111V4.14325C14.0925 4.42747 13.8621 4.65788 13.5778 4.65788C13.2936 4.65788 13.0632 4.88829 13.0632 5.17251V5.18323C13.0632 5.46153 12.8376 5.68714 12.5593 5.68714C12.0635 5.68714 12.0545 5.69151 12.0018 5.95517C11.9723 6.10261 11.9482 6.3342 11.9482 6.4698C11.9482 6.68423 11.916 6.71639 11.7016 6.71639C11.566 6.71639 11.3344 6.7405 11.187 6.77C10.9233 6.82275 10.9189 6.83176 10.9189 7.32752C10.9189 7.60582 11.1445 7.83142 11.4228 7.83142H11.4764C11.7843 7.83142 12.0339 8.08103 12.0339 8.38894V8.43182C12.0339 8.71604 12.2644 8.94645 12.5486 8.94645C12.8328 8.94645 13.0632 9.17686 13.0632 9.46108C13.0632 9.7453 13.2936 9.97571 13.5778 9.97571C13.8621 9.97571 14.0925 10.2061 14.0925 10.4903V12.0771V13.6639C14.0925 13.9481 13.8621 14.1785 13.5778 14.1785C13.2936 14.1785 13.0632 14.4089 13.0632 14.6931V14.736C13.0632 15.0439 12.8136 15.2935 12.5057 15.2935H12.0339H11.5622C11.2543 15.2935 11.0047 15.0439 11.0047 14.736C11.0047 14.4281 10.7551 14.1785 10.4472 14.1785H10.4043C10.1201 14.1785 9.88966 13.9481 9.88966 13.6639C9.88966 13.3797 9.65925 13.1493 9.37503 13.1493H9.36431C9.08601 13.1493 8.8604 12.9236 8.8604 12.6453C8.8604 12.1496 8.85603 12.1406 8.59237 12.0878C8.44493 12.0583 8.21334 12.0342 8.07774 12.0342C7.86331 12.0342 7.83114 12.0021 7.83114 11.7876C7.83114 11.652 7.80704 11.4204 7.77754 11.273C7.72479 11.0093 7.71578 11.005 7.22002 11.005C6.94172 11.005 6.71612 11.2306 6.71612 11.5089V12.5917V13.621C6.71612 13.9289 6.46651 14.1785 6.1586 14.1785C5.85069 14.1785 5.60109 14.4281 5.60109 14.736C5.60109 15.0439 5.35148 15.2935 5.04357 15.2935H4.00547H1.94696C1.63905 15.2935 1.38944 15.0439 1.38944 14.736C1.38944 14.4281 1.13984 14.1785 0.831928 14.1785C0.524022 14.1785 0.274414 13.9289 0.274414 13.621V7.83142V1.99896C0.274414 1.71474 0.504821 1.48434 0.789043 1.48434C1.07326 1.48434 1.30367 1.71474 1.30367 1.99896V2.55648V3.07111C1.30367 3.37901 1.55328 3.62862 1.86119 3.62862C2.16909 3.62862 2.4187 3.37901 2.4187 3.07111V3.02822C2.4187 2.744 2.64911 2.51359 2.93333 2.51359C3.21755 2.51359 3.44796 2.28319 3.44796 1.99896C3.44796 1.71474 3.21755 1.48434 2.93333 1.48434H2.4187Z" fill="#EEF65C"/>
</svg>
