<svg width="247" height="116" viewBox="0 0 247 116" fill="none" xmlns="http://www.w3.org/2000/svg">
<path d="M5.3081 45.3075L47.2892 40.49C48.8857 40.3068 50.091 38.9554 50.091 37.3484V17.0068C50.091 15.3549 51.3624 13.9814 53.0094 13.854L189.778 3.27518C191.615 3.13308 193.184 4.58544 193.184 6.42803V37.2473C193.184 38.8967 194.452 40.2691 196.096 40.3996L240.156 43.8964C241.768 44.0243 243.023 45.3473 243.067 46.9634L244.487 99.5223C244.534 101.245 243.193 102.687 241.472 102.767L193.184 104.995L62.3785 112.875C62.0938 112.892 61.8082 112.871 61.5292 112.811L15.741 103.053C14.5155 102.792 13.5599 101.832 13.3043 100.605L2.57281 49.0942C2.19342 47.2731 3.4601 45.5196 5.3081 45.3075Z" fill="#2C2626" stroke="white" stroke-width="4.74342" stroke-linecap="round"/>
<path fill-rule="evenodd" clip-rule="evenodd" d="M161.093 22.694L161.148 23.5857L160.257 23.6415L159.365 23.6974L159.477 25.4807L159.589 27.264L160.48 27.2082L161.372 27.1523L161.26 25.369L161.148 23.5857L163.043 23.4669L164.938 23.3482L164.994 24.2399C165.046 25.0736 165.008 25.1342 164.408 25.1718C163.643 25.2197 163.352 25.5631 163.307 26.4716C163.279 27.0321 163.162 27.1648 162.61 27.2623C161.721 27.4193 161.449 27.7141 161.611 28.3445C161.717 28.7579 161.932 28.8868 162.625 28.9534C163.403 29.0284 163.509 29.1095 163.543 29.6597C163.593 30.4493 163.983 30.7931 164.775 30.7436C165.31 30.71 165.404 30.7936 165.438 31.3286C165.488 32.1206 165.878 32.4648 166.67 32.4152L167.294 32.3761L167.587 37.0573L167.881 41.7385L168.884 41.6757L169.887 41.6128L169.943 42.5045L169.999 43.3961L172.673 43.2286L175.348 43.061L175.293 42.1693L175.237 41.2776L176.128 41.2218L177.02 41.1659L176.671 35.593L176.322 30.0201L177.325 29.9573L178.328 29.8944L178.272 29.0028L178.216 28.1111L179.108 28.0552L180 27.9994L179.937 26.9963L179.874 25.9931L180.766 25.9373L181.657 25.8814L181.546 24.0981L181.434 22.3148L180.542 22.3706L179.65 22.4265L179.595 21.5348L179.539 20.6432L176.752 20.8177L173.966 20.9923L174.022 21.884C174.074 22.7119 174.033 22.7784 173.453 22.8147C172.661 22.8644 172.317 23.2545 172.367 24.0465L172.406 24.6707L170.511 24.7894L168.616 24.9081L168.577 24.2839C168.528 23.4919 168.138 23.1478 167.346 23.1974C166.766 23.2337 166.717 23.1728 166.665 22.3448L166.61 21.4532L163.823 21.6278L161.037 21.8023L161.093 22.694Z" fill="url(#paint0_linear_6_12860)"/>
<path d="M137.196 25.0837L137.14 24.192L137.084 23.3004L144.624 22.828L153.875 22.2484L153.93 23.126C153.982 23.9468 154.031 24.0053 154.692 24.0294C155.551 24.0608 156.036 24.6195 155.716 25.2102C155.595 25.4333 155.182 25.6668 154.798 25.7294C154.145 25.8358 154.104 25.9 154.155 26.7207L154.21 27.5984L149.529 27.8917L144.848 28.1849L144.911 29.1881L144.974 30.1912L149.655 29.8979L154.336 29.6046L154.391 30.4822C154.443 31.303 154.492 31.3615 155.152 31.3856C156.012 31.417 156.497 31.9757 156.176 32.5664C156.055 32.7895 155.643 33.0231 155.259 33.0856C154.606 33.1921 154.565 33.2562 154.616 34.077L154.671 34.9546L149.99 35.2479L145.309 35.5412L145.546 39.3307L145.784 43.1203L144.892 43.1762L144 43.232L144.056 44.1237L144.112 45.0153L142.145 45.1386L138.467 45.369L138.411 44.4774L138.355 43.5857L137.463 43.6416L136.572 43.6974L135.992 34.4464L135.413 25.1954L136.304 25.1396L137.196 25.0837Z" fill="url(#paint1_linear_6_12860)"/>
<path d="M114.955 26.4782L114.899 25.5866L114.843 24.6949L116.81 24.5717L120.489 24.3412L120.544 25.2329L120.6 26.1245L121.492 26.0687L122.384 26.0128L122.789 32.4774L123.194 38.9419L126.983 38.7045L130.773 38.4671L130.829 39.3588L130.884 40.2504L131.776 40.1946L132.668 40.1387L132.787 42.0335L132.905 43.9283L132.014 43.9841L131.122 44.04L131.178 44.9316L131.234 45.8233L122.874 46.347L116.226 46.7636L116.17 45.8719L116.114 44.9802L115.222 45.0361L114.331 45.092L113.751 35.841L113.172 26.59L114.063 26.5341L114.955 26.4782Z" fill="url(#paint2_linear_6_12860)"/>
<path d="M91.0025 27.9782L90.9466 27.0866L90.8907 26.1949L94.5689 25.9645L96.5362 25.8412L96.592 26.7329L96.6479 27.6245L97.5395 27.5687L98.4312 27.5128L98.8362 33.9774L99.2412 40.4419L101.136 40.3232L103.031 40.2045L102.626 33.74L102.221 27.2754L103.224 27.2125L104.227 27.1497L104.171 26.258L104.115 25.3664L105.899 25.2546L107.682 25.1429L107.738 26.0346L107.794 26.9262L108.685 26.8704L109.577 26.8145L110.094 35.0624L110.61 43.3103L109.719 43.3661L108.827 43.422L108.89 44.4251L108.953 45.4283L108.061 45.4841L107.17 45.54L107.225 46.4316L107.281 47.3233L99.925 47.7842L94.2796 48.1379L94.2239 47.2489C94.17 46.3882 94.1403 46.3572 93.2924 46.2756C92.4821 46.1974 92.4023 46.127 92.2236 45.3328C92.0368 44.5017 92.0023 44.4761 91.1416 44.53L90.2526 44.5857L89.7359 36.3378L89.2191 28.09L90.1108 28.0341L91.0025 27.9782Z" fill="url(#paint3_linear_6_12860)"/>
<path d="M66.2957 28.8847L66.2472 28.1105L66.1987 27.3363L70.1343 27.0897L72.5348 26.9393L72.5833 27.7136L72.6318 28.4878L73.4705 28.4352L74.3092 28.3827L74.4588 30.7698L74.6084 33.157L75.3826 33.1085L76.1568 33.06L76.1083 32.2858L76.0598 31.5116L76.8985 31.459L77.7372 31.4065L77.6847 30.5677L77.6321 29.729L78.4064 29.6805L79.1806 29.632L79.1321 28.8578L79.0836 28.0836L79.9223 28.031L80.761 27.9785L80.7125 27.2043L80.664 26.43L82.2124 26.333L83.7609 26.236L83.8094 27.0102L83.8579 27.7844L84.6321 27.7359L85.4063 27.6874L85.5559 30.0746L85.7054 32.4618L84.9312 32.5103L84.157 32.5588L84.2055 33.333L84.254 34.1072L83.4959 34.1547C82.7501 34.2014 82.737 34.2088 82.6825 34.6105C82.652 34.8351 82.6375 35.1857 82.6503 35.3897C82.6705 35.7123 82.6252 35.7638 82.3026 35.784C82.0986 35.7967 81.7524 35.8548 81.5334 35.9131C81.1417 36.0173 81.136 36.0313 81.1827 36.7771L81.2302 37.5352L82.069 37.4826L82.9077 37.4301L82.9602 38.2688L83.0128 39.1076L83.787 39.0591L84.5612 39.0106L84.6097 39.7848L84.6582 40.559L85.4324 40.5105L86.2066 40.462L86.4047 43.6233L86.6028 46.7847L85.8286 46.8332L85.0543 46.8817L85.1069 47.7205L85.1594 48.5592L83.611 48.6562L82.0626 48.7532L82.01 47.9145L81.9575 47.0758L81.1188 47.1283L80.28 47.1808L80.2315 46.4066L80.183 45.6324L79.4088 45.6809L78.6346 45.7294L78.5871 44.9713C78.5404 44.2255 78.5329 44.2124 78.1313 44.1579C77.9067 44.1274 77.556 44.113 77.352 44.1257C77.0295 44.1459 76.978 44.1006 76.9578 43.778C76.945 43.574 76.887 43.2279 76.8287 43.0088C76.7245 42.6172 76.7105 42.6114 75.9647 42.6582L75.2066 42.7056L75.3561 45.0928L75.5057 47.48L74.667 47.5325L73.8282 47.5851L73.8808 48.4238L73.9333 49.2625L71.5329 49.4129L67.5973 49.6595L67.5447 48.8208L67.4922 47.982L66.6535 48.0346L65.8147 48.0871L65.2165 38.5385L64.6183 28.9898L65.3925 28.9413L66.1667 28.8928L66.2677 30.5058L66.3688 32.1187L67.2075 32.0662L68.0463 32.0136L67.9937 31.1749L67.9412 30.3362L68.7154 30.2877L69.4896 30.2391L69.4411 29.4649L69.3926 28.6907L67.8441 28.7877L66.2957 28.8847Z" fill="url(#paint4_linear_6_12860)"/>
<path d="M66.9035 69.825C65.863 61.1908 59.328 56.2257 50.6756 56.2257C40.8002 56.2257 33.2613 63.1988 33.2613 75.429C33.2613 87.6227 40.6724 94.6322 50.6756 94.6322C60.259 94.6322 66.0455 88.2615 66.9035 81.3798L58.9082 81.3433C58.1598 85.3409 55.0201 87.6409 50.8034 87.6409C45.1264 87.6409 41.2748 83.4242 41.2748 75.429C41.2748 67.6527 45.0716 63.217 50.8582 63.217C55.1844 63.217 58.3058 65.7178 58.9082 69.825H66.9035ZM72.4253 94.1211H80.2015V78.2583C80.2015 74.8083 82.7206 72.4353 86.1523 72.4353C87.2293 72.4353 88.7079 72.6178 89.4381 72.8551V65.9551C88.7444 65.7908 87.7769 65.6813 86.992 65.6813C83.8523 65.6813 81.2785 67.5067 80.2563 70.975H79.9642V66.0829H72.4253V94.1211ZM104.931 94.6687C111.868 94.6687 116.541 91.2917 117.636 86.0893L110.444 85.6147C109.659 87.7504 107.651 88.8639 105.059 88.8639C101.171 88.8639 98.7065 86.2901 98.7065 82.1099V82.0917H117.8V79.956C117.8 70.4274 112.032 65.7178 104.621 65.7178C96.37 65.7178 91.0216 71.5774 91.0216 80.2298C91.0216 89.1195 96.297 94.6687 104.931 94.6687ZM98.7065 77.2726C98.8708 74.0782 101.299 71.5226 104.749 71.5226C108.126 71.5226 110.462 73.9321 110.48 77.2726H98.7065ZM130.87 94.6505C135.014 94.6505 137.697 92.8433 139.066 90.233H139.285V94.1211H146.66V75.2099C146.66 68.5289 141.001 65.7178 134.758 65.7178C128.041 65.7178 123.623 68.9305 122.546 74.0417L129.738 74.6258C130.268 72.7639 131.929 71.3948 134.722 71.3948C137.369 71.3948 138.884 72.7274 138.884 75.0274V75.1369C138.884 76.944 136.967 77.1813 132.093 77.656C126.544 78.1671 121.561 80.029 121.561 86.2901C121.561 91.8393 125.522 94.6505 130.87 94.6505ZM133.097 89.2838C130.706 89.2838 128.99 88.1703 128.99 86.0346C128.99 83.8441 130.797 82.7671 133.535 82.3837C135.233 82.1464 138.007 81.7449 138.938 81.1242V84.0996C138.938 87.0385 136.511 89.2838 133.097 89.2838ZM167.606 66.0829H162.331V59.3654H154.555V66.0829H150.721V71.9242H154.555V86.5274C154.518 92.0219 158.26 94.7417 163.901 94.5044C165.909 94.4314 167.333 94.0298 168.118 93.7743L166.895 87.9877C166.511 88.0608 165.69 88.2433 164.96 88.2433C163.408 88.2433 162.331 87.6592 162.331 85.5052V71.9242H167.606V66.0829ZM185.039 94.6687C193.545 94.6687 198.839 88.8457 198.839 80.2115C198.839 71.5226 193.545 65.7178 185.039 65.7178C176.533 65.7178 171.239 71.5226 171.239 80.2115C171.239 88.8457 176.533 94.6687 185.039 94.6687ZM185.076 88.6449C181.151 88.6449 179.143 85.0488 179.143 80.1568C179.143 75.2647 181.151 71.6504 185.076 71.6504C188.927 71.6504 190.935 75.2647 190.935 80.1568C190.935 85.0488 188.927 88.6449 185.076 88.6449ZM203.895 94.1211H211.672V78.2583C211.672 74.8083 214.191 72.4353 217.622 72.4353C218.699 72.4353 220.178 72.6178 220.908 72.8551V65.9551C220.215 65.7908 219.247 65.6813 218.462 65.6813C215.322 65.6813 212.749 67.5067 211.726 70.975H211.434V66.0829H203.895V94.1211Z" fill="white"/>
<defs>
<linearGradient id="paint0_linear_6_12860" x1="157.116" y1="5.48824" x2="220.393" y2="57.124" gradientUnits="userSpaceOnUse">
<stop stop-color="#D7F88D"/>
<stop offset="1" stop-color="#C0EE99"/>
</linearGradient>
<linearGradient id="paint1_linear_6_12860" x1="133.25" y1="6.98089" x2="195.659" y2="53.8451" gradientUnits="userSpaceOnUse">
<stop stop-color="#D7F88D"/>
<stop offset="1" stop-color="#C0EE99"/>
</linearGradient>
<linearGradient id="paint2_linear_6_12860" x1="111.097" y1="8.36987" x2="172.105" y2="50.0621" gradientUnits="userSpaceOnUse">
<stop stop-color="#D7F88D"/>
<stop offset="1" stop-color="#C0EE99"/>
</linearGradient>
<linearGradient id="paint3_linear_6_12860" x1="87.0559" y1="9.87546" x2="149.473" y2="56.7745" gradientUnits="userSpaceOnUse">
<stop stop-color="#D7F88D"/>
<stop offset="1" stop-color="#C0EE99"/>
</linearGradient>
<linearGradient id="paint4_linear_6_12860" x1="62.4363" y1="10.8213" x2="125.695" y2="58.8158" gradientUnits="userSpaceOnUse">
<stop stop-color="#D7F88D"/>
<stop offset="1" stop-color="#C0EE99"/>
</linearGradient>
</defs>
</svg>
