<svg width="13" height="12" viewBox="0 0 13 12" fill="none" xmlns="http://www.w3.org/2000/svg">
<path d="M12.9694 0.176468V1.89565H11.2025V11.9561H9.14902V7.38749L7.28657 7.37157C7.31841 7.5732 7.33433 7.76953 7.33433 7.96055C7.33433 8.90504 7.03188 9.65851 6.42698 10.221C5.8327 10.7728 5.04208 11.0487 4.05515 11.0487C3.33351 11.0487 2.69678 10.9108 2.14494 10.6348C1.5931 10.3589 1.16331 9.97157 0.855554 9.47279C0.547798 8.96341 0.393921 8.38504 0.393921 7.73769H2.32004C2.32004 8.18341 2.46861 8.55484 2.76576 8.85198C3.0629 9.13851 3.45025 9.28177 3.9278 9.28177C4.40535 9.28177 4.78208 9.14381 5.058 8.8679C5.33392 8.58136 5.47188 8.21524 5.47188 7.76953C5.47188 7.33443 5.32331 6.9683 5.02617 6.67116C4.72902 6.36341 4.28861 6.20953 3.70494 6.20953H3.02045V4.55402H3.70494C4.21433 4.55402 4.61229 4.42137 4.89882 4.15606C5.18535 3.89075 5.32861 3.56708 5.32861 3.18504C5.32861 2.74994 5.19066 2.41035 4.91474 2.16626C4.64943 1.91157 4.30984 1.78422 3.89596 1.78422C3.46086 1.78422 3.10004 1.91157 2.81351 2.16626C2.53759 2.41035 2.39964 2.73402 2.39964 3.13728H0.505349C0.505349 2.52177 0.648615 1.98055 0.935145 1.51361C1.22168 1.03606 1.61963 0.669937 2.12902 0.415244C2.63841 0.16055 3.22739 0.0332031 3.89596 0.0332031C4.87229 0.0332031 5.65759 0.293203 6.25188 0.813202C6.85678 1.3332 7.15923 2.0283 7.15923 2.89851C7.15923 3.49279 7.00535 4.00218 6.69759 4.42667C6.38984 4.84055 5.95474 5.13239 5.39229 5.30218V5.34994C5.65759 5.403 5.92821 5.51443 6.20412 5.68422H9.14902V0.176468H12.9694Z" fill="white"/>
</svg>
