<svg width="15" height="11" viewBox="0 0 15 11" fill="none" xmlns="http://www.w3.org/2000/svg">
<path fill-rule="evenodd" clip-rule="evenodd" d="M6.65135 0.97077C5.45355 1.05931 4.53368 1.53158 4.03093 2.31612C3.80401 2.67025 3.68447 3.07961 3.66411 3.57213C3.64203 4.10715 3.73729 4.48555 3.99968 4.90502C4.31157 5.40361 4.70046 5.67047 5.26283 5.77181C5.52689 5.81938 6.08352 5.80555 6.34953 5.74482C6.97872 5.60114 7.4869 5.19611 7.7309 4.64382C7.84162 4.39317 7.88322 4.19732 7.89729 3.86029C7.91809 3.3616 7.80394 2.94098 7.55534 2.6004C7.50148 2.5266 7.46352 2.45989 7.47102 2.45216C7.48873 2.43384 7.79677 2.50451 8.03271 2.58107C9.02073 2.90162 9.71278 3.79072 9.88827 4.96491C9.92479 5.20929 9.93988 5.55388 9.93059 5.93145L9.92484 6.16558L5.92584 6.1658C3.48114 6.16592 1.82601 6.17523 1.66742 6.18974C1.057 6.24564 0.720524 6.38261 0.518543 6.6574C0.363203 6.86877 0.320903 7.20162 0.394174 7.63617C0.552299 8.57411 1.18854 9.38932 2.29294 10.0691C3.01099 10.5111 3.78184 10.7915 4.64314 10.9241C4.92027 10.9668 6.14173 10.9667 6.53526 10.924C8.12495 10.7515 9.23418 10.274 10.1016 9.38864C10.5718 8.90878 10.8318 8.50245 11.05 7.90656L11.1468 7.64241L12.0448 7.63612L12.9429 7.62985V9.26303V10.8962H13.6511H14.3593L14.3534 6.14757L14.3475 1.39891L13.6975 1.39216C13.3399 1.38846 13.0239 1.39137 12.9952 1.39864L12.9429 1.41183V3.78803V6.16421L12.2407 6.17091C11.8544 6.17458 11.5148 6.17413 11.4861 6.1699C11.4343 6.16229 11.4339 6.15936 11.4339 5.74621C11.4339 5.12224 11.385 4.70124 11.2566 4.22049C10.8833 2.82279 9.77918 1.60641 8.48924 1.17183C7.96213 0.994231 7.30553 0.922407 6.65135 0.97077ZM6.01956 3.06523C6.14839 3.13321 6.28478 3.27959 6.35063 3.42058C6.42749 3.58516 6.42659 3.8491 6.34858 4.01637C6.27677 4.17037 6.1369 4.31453 5.98968 4.38625C5.81384 4.47191 5.57049 4.46771 5.39029 4.37593C4.86746 4.10967 4.85991 3.33936 5.37745 3.06626C5.56548 2.96706 5.83267 2.96663 6.01956 3.06523ZM9.48373 7.66143C9.48373 7.73073 9.24427 8.08783 9.06481 8.28614C8.52313 8.88475 7.68828 9.28594 6.62813 9.45713C6.23654 9.52036 5.17352 9.54867 4.79486 9.50593C4.13085 9.431 3.46422 9.17898 3.0064 8.8298C2.73205 8.62055 2.44115 8.27627 2.34 8.0411C2.24316 7.81598 2.29628 7.70189 2.5189 7.65682C2.57634 7.64517 4.16691 7.63448 6.05353 7.63304C8.84273 7.63088 9.48373 7.63619 9.48373 7.66143Z" fill="white"/>
</svg>
