<svg width="17" height="14" viewBox="0 0 17 14" fill="none" xmlns="http://www.w3.org/2000/svg">
<path fill-rule="evenodd" clip-rule="evenodd" d="M4.43456 0.967821C4.40705 0.97256 4.317 0.986088 4.23446 0.997895C3.58407 1.09093 2.9368 1.39649 2.35404 1.88557C1.98573 2.19469 1.55431 2.7038 1.26257 3.17362C1.00471 3.58884 0.753467 4.16627 0.611615 4.66965C0.234983 6.00622 0.282567 7.69894 0.736638 9.11749C1.03951 10.0637 1.53965 10.8949 2.24959 11.6319C3.27825 12.6999 4.56196 13.398 6.0954 13.7235C6.4382 13.7962 6.51236 13.8096 6.76575 13.8447C8.40384 14.0713 10.0312 13.9501 11.4081 13.499C13.3976 12.8472 14.9919 11.3763 15.7679 9.47661C16.4284 7.85974 16.5467 5.71581 16.0666 4.06469C15.7933 3.12455 15.2458 2.19518 14.6498 1.6595C14.105 1.16997 13.5693 0.956055 12.888 0.956055C12.1688 0.956055 11.621 1.1948 11.0774 1.74518C10.5123 2.31729 10.2191 2.92725 10.128 3.72041C10.0903 4.04938 10.09 4.17204 10.1264 4.45136C10.1763 4.83442 10.227 5.00767 10.3871 5.3416C10.5189 5.61664 10.6775 5.83522 10.9048 6.05503L11.0783 6.22271L11.0342 6.28304C10.9977 6.333 10.9796 6.34161 10.929 6.3332C10.8953 6.32762 10.6805 6.29564 10.4516 6.26214L10.0354 6.20124H8.8358H7.63619V6.92018V7.63912H10.4276H13.219L13.2188 6.97587L13.2185 6.31263L13.0043 6.20124C12.3566 5.86448 11.8033 5.29814 11.5996 4.76337C11.3868 4.20477 11.4576 3.53043 11.7805 3.04198C12.0784 2.5912 12.4596 2.37787 12.9328 2.3971C13.1086 2.40425 13.1456 2.41286 13.2821 2.47846C13.9191 2.7846 14.4489 3.94043 14.6033 5.3608C14.6384 5.68345 14.6381 6.7444 14.6029 7.04169C14.4627 8.22425 14.0964 9.15678 13.4455 9.98862C13.2745 10.2072 12.8593 10.6278 12.6387 10.8062C12.0896 11.2502 11.3864 11.626 10.7278 11.8276C10.223 11.982 9.90418 12.0469 9.31706 12.1148C8.87084 12.1663 7.92317 12.1713 7.4539 12.1246C5.80536 11.9603 4.55484 11.4091 3.57392 10.4144C3.41424 10.2524 3.2153 10.028 3.13186 9.91555C2.49595 9.05888 2.17481 8.11857 2.1151 6.93843C2.08789 6.40064 2.11724 6.10335 2.23744 5.69906C2.2777 5.56362 2.28551 5.55177 2.33071 5.5573C2.37203 5.56234 2.3872 5.58478 2.4239 5.6952C2.66396 6.41755 3.33316 6.98399 4.19532 7.19459C4.97045 7.38394 5.91903 7.21039 6.58565 6.75724C7.17994 6.35327 7.67115 5.72347 7.86432 5.11778C7.98649 4.73476 8.00448 4.60636 8.00476 4.11532C8.005 3.69344 8.00111 3.64299 7.95245 3.43492C7.85476 3.01725 7.67153 2.61724 7.41994 2.27242C7.23993 2.02571 6.85571 1.65336 6.60919 1.48671C6.23682 1.23496 5.9259 1.10229 5.47509 1.00276C5.34995 0.975132 4.54836 0.948217 4.43456 0.967821ZM5.24647 2.42525C5.67219 2.51426 6.06291 2.78454 6.31314 3.16315C6.50305 3.45052 6.57463 3.68135 6.5895 4.05456C6.60959 4.55847 6.46771 4.96247 6.15227 5.29974C5.77658 5.70143 5.33286 5.87742 4.76473 5.85012C4.49509 5.83714 4.35184 5.8037 4.13761 5.7037C3.77212 5.5331 3.4548 5.20644 3.30286 4.84438C3.17834 4.54765 3.13682 4.07546 3.20527 3.73475C3.33192 3.10448 3.86121 2.55847 4.47458 2.42538C4.65389 2.38645 5.06058 2.38639 5.24647 2.42525Z" fill="white"/>
</svg>
