<svg width="4" height="14" viewBox="0 0 4 14" fill="none" xmlns="http://www.w3.org/2000/svg">
<path d="M2.31932 7.88079C2.71571 7.88079 3.03705 7.55945 3.03705 7.16305C3.03705 6.76665 2.71571 6.44531 2.31932 6.44531C1.92292 6.44531 1.60158 6.76665 1.60158 7.16305C1.60158 7.55945 1.92292 7.88079 2.31932 7.88079Z" stroke="white" stroke-width="1.7658" stroke-linecap="round" stroke-linejoin="round"/>
<path d="M2.3193 2.8593C2.7157 2.8593 3.03704 2.53796 3.03704 2.14157C3.03704 1.74517 2.7157 1.42383 2.3193 1.42383C1.9229 1.42383 1.60156 1.74517 1.60156 2.14157C1.60156 2.53796 1.9229 2.8593 2.3193 2.8593Z" stroke="white" stroke-width="1.7658" stroke-linecap="round" stroke-linejoin="round"/>
<path d="M2.31932 12.9023C2.71571 12.9023 3.03705 12.5809 3.03705 12.1845C3.03705 11.7881 2.71571 11.4668 2.31932 11.4668C1.92292 11.4668 1.60158 11.7881 1.60158 12.1845C1.60158 12.5809 1.92292 12.9023 2.31932 12.9023Z" stroke="white" stroke-width="1.7658" stroke-linecap="round" stroke-linejoin="round"/>
</svg>
