<svg width="15" height="17" viewBox="0 0 15 17" fill="none" xmlns="http://www.w3.org/2000/svg">
<path d="M11.6593 5.53723C12.8295 5.53723 13.7782 4.58854 13.7782 3.41828C13.7782 2.24801 12.8295 1.29932 11.6593 1.29932C10.489 1.29932 9.54031 2.24801 9.54031 3.41828C9.54031 4.58854 10.489 5.53723 11.6593 5.53723Z" stroke="black" stroke-width="1.7658" stroke-linecap="round" stroke-linejoin="round"/>
<path d="M3.18342 10.4815C4.35369 10.4815 5.30238 9.53279 5.30238 8.36252C5.30238 7.19225 4.35369 6.24356 3.18342 6.24356C2.01315 6.24356 1.06446 7.19225 1.06446 8.36252C1.06446 9.53279 2.01315 10.4815 3.18342 10.4815Z" stroke="black" stroke-width="1.7658" stroke-linecap="round" stroke-linejoin="round"/>
<path d="M11.6593 15.4257C12.8295 15.4257 13.7782 14.477 13.7782 13.3067C13.7782 12.1365 12.8295 11.1878 11.6593 11.1878C10.489 11.1878 9.54031 12.1365 9.54031 13.3067C9.54031 14.477 10.489 15.4257 11.6593 15.4257Z" stroke="black" stroke-width="1.7658" stroke-linecap="round" stroke-linejoin="round"/>
<path d="M5.01267 9.42889L9.83684 12.24" stroke="black" stroke-width="1.7658" stroke-linecap="round" stroke-linejoin="round"/>
<path d="M9.82977 4.48465L5.01267 7.2958" stroke="black" stroke-width="1.7658" stroke-linecap="round" stroke-linejoin="round"/>
</svg>
