<svg width="13" height="17" viewBox="0 0 13 17" fill="none" xmlns="http://www.w3.org/2000/svg">
<g opacity="0.2">
<path d="M2.31381 15.9561C2.18389 15.9556 2.05627 15.9183 1.94325 15.8477C1.82644 15.7754 1.72917 15.6701 1.6614 15.5427C1.59363 15.4153 1.5578 15.2704 1.55757 15.1227V2.89772C1.54734 2.39799 1.71625 1.91394 2.02767 1.55049C2.3391 1.18704 2.76795 0.973467 3.22129 0.956055H10.4812C10.9345 0.973467 11.3634 1.18704 11.6748 1.55049C11.9862 1.91394 12.1551 2.39799 12.1449 2.89772V15.1227C12.1441 15.2681 12.1088 15.4108 12.0425 15.5365C11.9761 15.6623 11.8811 15.7667 11.7668 15.8394C11.6518 15.9125 11.5214 15.951 11.3887 15.951C11.2559 15.951 11.1255 15.9125 11.0106 15.8394L6.72268 13.1644L2.69193 15.8311C2.57815 15.9089 2.44767 15.952 2.31381 15.9561V15.9561Z" stroke="white" stroke-width="1.62"/>
</g>
</svg>
