<svg width="32" height="18" viewBox="0 0 32 18" fill="none" xmlns="http://www.w3.org/2000/svg">
<path d="M4.24692 4.39205C4.62492 4.77005 5.17692 5.02805 5.94492 5.02805C7.02492 5.02805 7.54692 4.47605 7.54692 3.74405C7.54692 2.85605 6.70692 2.65805 6.04692 2.50805C5.58492 2.40005 5.24892 2.31605 5.24892 2.04605C5.24892 1.80605 5.45292 1.63805 5.83692 1.63805C6.22692 1.63805 6.65892 1.77605 6.98292 2.07605L7.45692 1.45205C7.06092 1.08605 6.53292 0.894054 5.89692 0.894054C4.95492 0.894054 4.37892 1.43405 4.37892 2.10005C4.37892 2.99405 5.21892 3.17405 5.87292 3.32405C6.33492 3.43205 6.68292 3.53405 6.68292 3.83405C6.68292 4.06205 6.45492 4.28405 5.98692 4.28405C5.43492 4.28405 4.99692 4.03805 4.71492 3.74405L4.24692 4.39205ZM11.1806 4.95605H12.0866L13.2266 0.954054H12.2666L11.5706 3.84605L10.8146 0.954054H10.1486L9.38658 3.84605L8.68458 0.954054H7.73058L8.87658 4.95605H9.78258L10.4786 2.20805L11.1806 4.95605ZM13.6284 4.95605H14.4804V0.954054H13.6284V4.95605ZM16.1989 4.95605H17.0569V1.70405H18.2209V0.954054H15.0289V1.70405H16.1989V4.95605ZM20.5286 5.02805C21.4406 5.02805 21.9446 4.54205 22.2326 4.04405L21.5006 3.69005C21.3326 4.02005 20.9726 4.27205 20.5286 4.27205C19.8326 4.27205 19.3046 3.71405 19.3046 2.95805C19.3046 2.20205 19.8326 1.64405 20.5286 1.64405C20.9726 1.64405 21.3326 1.90205 21.5006 2.22605L22.2326 1.86605C21.9506 1.36805 21.4406 0.888054 20.5286 0.888054C19.3586 0.888054 18.4286 1.72805 18.4286 2.95805C18.4286 4.18805 19.3586 5.02805 20.5286 5.02805ZM25.4817 4.95605H26.3397V0.954054H25.4817V2.52605H23.5917V0.954054H22.7397V4.95605H23.5917V3.27605H25.4817V4.95605ZM2.51122 16.9561H3.79822V12.0781H5.54422V10.9531H0.756219V12.0781H2.51122V16.9561ZM5.85577 13.9591C5.85577 15.7681 7.17877 17.0641 8.98777 17.0641C10.8058 17.0641 12.1288 15.7681 12.1288 13.9591C12.1288 12.1501 10.8058 10.8541 8.98777 10.8541C7.17877 10.8541 5.85577 12.1501 5.85577 13.9591ZM10.8148 13.9591C10.8148 15.0751 10.0948 15.9301 8.98777 15.9301C7.88077 15.9301 7.16977 15.0751 7.16977 13.9591C7.16977 12.8341 7.88077 11.9881 8.98777 11.9881C10.0948 11.9881 10.8148 12.8341 10.8148 13.9591ZM19.5313 16.9561H20.9263L18.6133 10.9531H17.0113L14.6893 16.9561H16.0933L16.4713 15.9211H19.1533L19.5313 16.9561ZM17.8123 12.0601L18.8023 14.8141H16.8133L17.8123 12.0601ZM21.4807 16.9561H22.7587V14.8051H24.2887C25.5847 14.8051 26.3047 13.9321 26.3047 12.8881C26.3047 11.8351 25.5937 10.9531 24.2887 10.9531H21.4807V16.9561ZM24.9997 12.8791C24.9997 13.3831 24.6217 13.7071 24.1177 13.7071H22.7587V12.0511H24.1177C24.6217 12.0511 24.9997 12.3841 24.9997 12.8791ZM27.0969 16.9561H28.3749V14.8051H29.9049C31.2009 14.8051 31.9209 13.9321 31.9209 12.8881C31.9209 11.8351 31.2099 10.9531 29.9049 10.9531H27.0969V16.9561ZM30.6159 12.8791C30.6159 13.3831 30.2379 13.7071 29.7339 13.7071H28.3749V12.0511H29.7339C30.2379 12.0511 30.6159 12.3841 30.6159 12.8791Z" fill="url(#paint0_linear)"/>
<defs>
<linearGradient id="paint0_linear" x1="4.81138" y1="3.12675" x2="32.9562" y2="3.95385" gradientUnits="userSpaceOnUse">
<stop stop-color="#DCFA8A"/>
<stop offset="1" stop-color="#BBEC9B"/>
</linearGradient>
</defs>
</svg>
